<svg xmlns="http://www.w3.org/2000/svg" viewBox="0 0 1600 1000" role="img" aria-labelledby="t d"><title id="t">淡い花束のイメージ</title><desc id="d">ベージュの背景にピンク、白、緑の花々を配したイラスト</desc><defs><linearGradient id="bg" x2="1" y2="1"><stop stop-color="#e7e0d4"/><stop offset="1" stop-color="#cbd6c2"/></linearGradient><radialGradient id="p"><stop stop-color="#fff8f5"/><stop offset=".7" stop-color="#d7a9aa"/><stop offset="1" stop-color="#b87f83"/></radialGradient><radialGradient id="w"><stop stop-color="#fff"/><stop offset=".72" stop-color="#eee9df"/><stop offset="1" stop-color="#c8c2b5"/></radialGradient></defs><rect width="1600" height="1000" fill="url(#bg)"/><g opacity=".28" fill="#fff"><circle cx="230" cy="160" r="120"/><circle cx="1350" cy="250" r="190"/><circle cx="1180" cy="810" r="150"/></g><g stroke="#71875e" stroke-width="18" stroke-linecap="round" fill="none"><path d="M930 1020Q850 680 980 320"/><path d="M880 1010Q720 620 620 300"/><path d="M980 1000Q1050 660 1280 450"/><path d="M830 1010Q930 590 820 370"/></g><g fill="#789567"><ellipse cx="820" cy="640" rx="56" ry="125" transform="rotate(-35 820 640)"/><ellipse cx="1040" cy="670" rx="55" ry="125" transform="rotate(36 1040 670)"/><ellipse cx="730" cy="530" rx="44" ry="100" transform="rotate(-55 730 530)"/><ellipse cx="1150" cy="565" rx="45" ry="105" transform="rotate(50 1150 565)"/></g><g fill="url(#p)"><g transform="translate(620 300)"><circle r="120"/><circle cx="-95" cy="15" r="80"/><circle cx="92" cy="5" r="78"/><circle cy="-90" r="76"/></g><g transform="translate(980 325) scale(.86)"><circle r="120"/><circle cx="-95" cy="15" r="80"/><circle cx="92" cy="5" r="78"/><circle cy="-90" r="76"/></g></g><g fill="url(#w)"><g transform="translate(820 400) scale(.72)"><circle r="120"/><circle cx="-95" cy="15" r="80"/><circle cx="92" cy="5" r="78"/><circle cy="-90" r="76"/></g><g transform="translate(1280 455) scale(.6)"><circle r="120"/><circle cx="-95" cy="15" r="80"/><circle cx="92" cy="5" r="78"/><circle cy="-90" r="76"/></g></g><g fill="#d4c49a"><circle cx="1070" cy="480" r="25"/><circle cx="1110" cy="440" r="18"/><circle cx="1160" cy="475" r="22"/><circle cx="560" cy="470" r="18"/><circle cx="520" cy="430" r="23"/></g></svg>
