<svg xmlns="http://www.w3.org/2000/svg" viewBox="0 0 800 600" role="img" aria-labelledby="t"><title id="t">パールアンスリウムブーケ</title><rect width="800" height="600" fill="#f3f1ea"/><path d="M400 550Q350 380 300 200M405 550Q450 360 520 175" fill="none" stroke="#7d916b" stroke-width="14"/><g fill="#fffdf8" stroke="#d8d3c9" stroke-width="4"><path d="M300 335C120 290 165 95 325 145c110 35 85 155-25 190z"/><path d="M500 305c-130-70-75-230 70-180 115 40 60 180-70 180z"/></g><g fill="#d9bd85"><circle cx="320" cy="190" r="20"/><circle cx="520" cy="175" r="20"/></g><g fill="#f8f6f0" stroke="#d1cbc0" stroke-width="3"><circle cx="255" cy="385" r="25"/><circle cx="300" cy="420" r="26"/><circle cx="355" cy="390" r="24"/><circle cx="450" cy="380" r="26"/><circle cx="500" cy="420" r="25"/></g></svg>
