<svg xmlns="http://www.w3.org/2000/svg" viewBox="0 0 800 600" role="img" aria-labelledby="t"><title id="t">植物刺繍ベールショール</title><rect width="800" height="600" fill="#f4f2ed"/><path d="M400 100C260 170 150 310 100 540h600C650 310 540 170 400 100z" fill="#fdfbf6" fill-opacity=".82" stroke="#c7c5bd" stroke-width="6"/><g fill="none" stroke="#82956f" stroke-width="8"><path d="M190 490q90-150 205-260M610 490Q520 340 405 230"/><path d="M265 390q-55-50-90-20M325 310q-30-55-75-55M535 390q55-50 90-20M475 310q30-55 75-55"/></g><g fill="#96a985"><ellipse cx="190" cy="370" rx="22" ry="45" transform="rotate(-65 190 370)"/><ellipse cx="250" cy="255" rx="22" ry="45" transform="rotate(-55 250 255)"/><ellipse cx="610" cy="370" rx="22" ry="45" transform="rotate(65 610 370)"/><ellipse cx="550" cy="255" rx="22" ry="45" transform="rotate(55 550 255)"/></g></svg>
