<svg xmlns="http://www.w3.org/2000/svg" viewBox="0 0 900 700" role="img" aria-labelledby="t"><title id="t">花を手作りする工房のイメージ</title><rect width="900" height="700" fill="#ded7ca"/><rect x="70" y="80" width="760" height="540" rx="8" fill="#f6f0e7"/><path d="M230 525Q300 290 430 180M460 520Q500 310 650 220M430 520Q390 340 280 260" fill="none" stroke="#738a61" stroke-width="14" stroke-linecap="round"/><g fill="#95ad80"><ellipse cx="325" cy="350" rx="36" ry="75" transform="rotate(-40 325 350)"/><ellipse cx="530" cy="365" rx="36" ry="75" transform="rotate(45 530 365)"/></g><g fill="#c98f92"><circle cx="430" cy="170" r="72"/><circle cx="374" cy="190" r="50"/><circle cx="480" cy="200" r="48"/></g><g fill="#eee5d4"><circle cx="650" cy="220" r="68"/><circle cx="600" cy="240" r="44"/><circle cx="700" cy="245" r="45"/></g><g fill="#d6a5a4"><circle cx="280" cy="260" r="58"/><circle cx="240" cy="280" r="38"/><circle cx="325" cy="285" r="40"/></g><path d="M160 520h580" stroke="#b8ab99" stroke-width="8"/><rect x="210" y="525" width="480" height="40" rx="20" fill="#cbbca8"/></svg>
